<?xml version="1.0" encoding="utf-8"?>
<!-- Generator: Adobe Illustrator 18.0.0, SVG Export Plug-In . SVG Version: 6.00 Build 0)  -->
<!DOCTYPE svg PUBLIC "-//W3C//DTD SVG 1.1//EN" "http://www.w3.org/Graphics/SVG/1.1/DTD/svg11.dtd">
<svg version="1.1" id="Layer_1" xmlns="http://www.w3.org/2000/svg" xmlns:xlink="http://www.w3.org/1999/xlink" x="0px" y="0px"
	 viewBox="0 0 300 300" enable-background="new 0 0 300 300" xml:space="preserve">
<g>
	<g>
		<path stroke="#000000" stroke-width="3" stroke-miterlimit="10" d="M270.6,108.8c7.3,0,13.2-5.9,13.2-13.2V83.7
			c0-7.3-5.9-13.2-13.2-13.2h-6.2c-1.6-6-4-11.7-7.1-17.1l4.3-4.3c5.1-5.1,5.1-13.5,0-18.6l-8.5-8.5c-2.5-2.5-5.8-3.9-9.3-3.9
			c-3.5,0-6.8,1.3-9.3,3.9l-4.3,4.3c-5.4-3.1-11.1-5.5-17.1-7.1v-6.1C213.2,5.9,207.3,0,200,0h-11.9c-7.3,0-13.2,5.9-13.2,13.2v6.2
			c-6,1.6-11.7,4-17.1,7.1l-4.3-4.3c-2.5-2.5-5.8-3.9-9.3-3.9s-6.8,1.3-9.3,3.9l-8.5,8.5c-5.1,5.1-5.1,13.5,0,18.6l4.3,4.3
			c-3.1,5.4-5.5,11.1-7.1,17.1h-6.2c-7.3,0-13.2,5.9-13.2,13.2v11.9c0,7.3,5.9,13.2,13.2,13.2h6.2c1.6,6,4,11.7,7.1,17.1l-4.3,4.3
			c-5.1,5.1-5.1,13.5,0,18.6l8.5,8.5c2.5,2.5,5.8,3.9,9.3,3.9s6.8-1.3,9.3-3.9l4.3-4.3c5.4,3.1,11.1,5.5,17.1,7.1v6.2
			c0,7.3,5.9,13.2,13.2,13.2H200c7.3,0,13.2-5.9,13.2-13.2v-6.2c6-1.6,11.7-4,17.1-7.1l4.3,4.3c2.5,2.5,5.8,3.9,9.3,3.9
			c3.5,0,6.8-1.3,9.3-3.9l8.5-8.5c5.1-5.1,5.1-13.5,0-18.6l-4.3-4.3c3.1-5.4,5.5-11.1,7.1-17.1L270.6,108.8L270.6,108.8z
			 M253.7,101.6c-1.5,7.8-4.6,15.2-9.1,21.9c-1.6,2.4-1.3,5.6,0.7,7.7l7.8,7.8c0.4,0.4,0.4,1,0,1.5l-8.5,8.4
			c-0.2,0.2-0.6,0.3-0.7,0.3s-0.5-0.1-0.7-0.3l-7.8-7.8c-2-2-5.3-2.4-7.7-0.7c-6.7,4.5-14,7.5-21.9,9.1c-2.8,0.6-4.9,3.1-4.9,5.9v11
			c0,0.6-0.5,1-1,1h-11.9c-0.6,0-1-0.5-1-1v-11c0-2.9-2-5.4-4.9-5.9c-7.8-1.5-15.2-4.6-21.9-9.1c-1-0.7-2.2-1-3.4-1
			c-1.6,0-3.1,0.6-4.3,1.8l-7.7,7.8c-0.2,0.2-0.6,0.3-0.7,0.3c-0.2,0-0.5-0.1-0.7-0.3l-8.5-8.5c-0.4-0.4-0.4-1,0-1.5l7.8-7.8
			c2-2,2.4-5.3,0.7-7.7c-4.5-6.7-7.5-14-9.1-21.9c-0.6-2.8-3.1-4.9-5.9-4.9h-11c-0.6,0-1-0.5-1-1V83.6c0-0.6,0.5-1,1-1h11
			c2.9,0,5.4-2,5.9-4.9c1.5-7.8,4.6-15.2,9.1-21.9c1.6-2.4,1.3-5.6-0.7-7.7l-7.8-7.8c-0.4-0.4-0.4-1,0-1.5l8.5-8.5
			c0.2-0.2,0.6-0.3,0.7-0.3c0.2,0,0.5,0.1,0.7,0.3l7.8,7.8c2,2,5.3,2.4,7.7,0.7c6.7-4.5,14-7.5,21.9-9.1c2.8-0.6,4.9-3.1,4.9-5.9
			V13.2c0-0.6,0.5-1,1-1h11.9c0.6,0,1,0.5,1,1v11c0,2.9,2,5.4,4.9,5.9c7.8,1.5,15.2,4.6,21.9,9.1c2.4,1.6,5.6,1.3,7.7-0.7l7.8-7.8
			c0.2-0.2,0.6-0.3,0.7-0.3c0.2,0,0.5,0.1,0.7,0.3l8.5,8.5c0.4,0.4,0.4,1,0,1.5l-7.9,7.8c-2,2-2.4,5.3-0.7,7.7
			c4.5,6.7,7.5,14,9.1,21.9c0.6,2.8,3.1,4.9,5.9,4.9h11c0.6,0,1,0.5,1,1v11.9c0,0.6-0.5,1-1,1h-11
			C256.8,96.7,254.3,98.7,253.7,101.6z"/>
		<path stroke="#000000" stroke-width="3" stroke-miterlimit="10" d="M194.1,51.4c-21.1,0-38.2,17.1-38.2,38.2s17.1,38.2,38.2,38.2
			s38.2-17.1,38.2-38.2S215.1,51.4,194.1,51.4z M194.1,115.7c-14.4,0-26.1-11.7-26.1-26.1s11.7-26.1,26.1-26.1s26.1,11.7,26.1,26.1
			S208.5,115.7,194.1,115.7z"/>
		<path stroke="#000000" stroke-width="3" stroke-miterlimit="10" d="M64.5,276.3l20.5-3.1v20.7c0,3.4,2.7,6.1,6.1,6.1h112.6
			c3.4,0,6.1-2.7,6.1-6.1v-76.1c11.8-11.4,20.7-25.5,25.8-41.1c1-3.2-0.7-6.6-3.9-7.7c-3.2-1-6.6,0.7-7.7,3.9
			c-4.8,14.4-13.2,27.5-24.4,37.8c-1.2,1.2-2,2.8-2,4.5v72.6H97.1v-21.6c0-1.8-0.8-3.4-2.1-4.6c-1.3-1.2-3.1-1.7-4.8-1.4l-27,4
			c-7.5-0.2-13.5-6.4-13.5-14v-35.2c0-3.4-2.7-6.1-6.1-6.1h-9.1c-2.8,0-5-0.8-5.8-2.1c-0.8-1.3-0.5-3.6,0.9-6.1l19.4-37
			c0.4-0.9,0.7-1.8,0.7-2.8v-15.8c0-34.5,20.2-66.2,51.6-80.8c3-1.4,6.1-2.7,9.2-3.7c3.2-1.1,4.8-4.5,3.8-7.7
			c-1.1-3.2-4.5-4.8-7.7-3.8c-3.6,1.2-7,2.6-10.3,4.2c-35.6,16.5-58.5,52.5-58.5,91.7v14.3l-18.7,35.7c-3.4,6.4-3.5,12.9-0.5,17.9
			c3.1,5,8.9,7.9,16.1,7.9h3.1v29.1c0,14.4,11.7,26.1,26.1,26.1C63.9,276.4,64.2,276.3,64.5,276.3z"/>
	</g>
</g>
</svg>
