<?xml version="1.0" encoding="utf-8"?>
<!-- Generator: Adobe Illustrator 18.0.0, SVG Export Plug-In . SVG Version: 6.00 Build 0)  -->
<!DOCTYPE svg PUBLIC "-//W3C//DTD SVG 1.1//EN" "http://www.w3.org/Graphics/SVG/1.1/DTD/svg11.dtd">
<svg version="1.1" id="Capa_1" xmlns="http://www.w3.org/2000/svg" xmlns:xlink="http://www.w3.org/1999/xlink" x="0px" y="0px"
	 viewBox="0 0 300 300" enable-background="new 0 0 300 300" xml:space="preserve">
<g>
	<path stroke="#000000" stroke-width="3" stroke-miterlimit="10" d="M240.2,255.3H229v-15h-18.8v-38.4c0-10.2-5-19.6-13.5-25.2
		L156.8,150l39.9-26.6c8.4-5.6,13.5-15.1,13.5-25.2V59.8H229v-15h11.3c2.1,0,3.8-1.7,3.8-3.8s-1.7-3.8-3.8-3.8H229h-3.8H74.8H71
		H59.8c-2.1,0-3.8,1.7-3.8,3.8s1.7,3.8,3.8,3.8H71v15h18.8v38.4c0,10.2,5,19.6,13.5,25.2l39.9,26.6l-39.9,26.6
		c-8.4,5.6-13.5,15.1-13.5,25.2v38.4H71v15H59.8c-2.1,0-3.8,1.7-3.8,3.8s1.7,3.8,3.8,3.8H71h3.8h150.4h3.8h11.3
		c2.1,0,3.8-1.7,3.8-3.8S242.3,255.3,240.2,255.3z M78.6,52.2v-7.5h142.9v7.5h-11.3H89.8H78.6z M107.5,117.2
		c-6.4-4.2-10.1-11.3-10.1-19V59.8h105.3v38.4c0,7.6-3.8,14.7-10.1,19L150,145.5L107.5,117.2z M97.4,201.8c0-7.6,3.8-14.7,10.1-19
		l42.5-28.3l42.5,28.3c6.4,4.2,10.1,11.3,10.1,19v38.4H97.4V201.8z M78.6,247.8h11.3h120.3h11.3v7.5H78.6V247.8z"/>
	<path stroke="#000000" stroke-width="3" stroke-miterlimit="10" d="M115.8,104.6c-2.2-1.4-3.4-3.9-3.4-6.4v-8.4
		c0-2.1-1.7-3.8-3.8-3.8c-2.1,0-3.8,1.7-3.8,3.8v8.4c0,5.1,2.5,9.9,6.8,12.7l17.4,11.6c0.6,0.4,1.4,0.6,2.1,0.6
		c1.2,0,2.4-0.6,3.1-1.7c1.2-1.7,0.7-4.1-1-5.2L115.8,104.6z"/>
	<path stroke="#000000" stroke-width="3" stroke-miterlimit="10" d="M188.3,192.3l-17.4-11.6c-1.7-1.2-4.1-0.7-5.2,1
		c-1.2,1.7-0.7,4.1,1,5.2l17.4,11.6c2.2,1.4,3.5,3.8,3.5,6.4v8.4c0,2.1,1.7,3.8,3.8,3.8s3.8-1.7,3.8-3.8V205
		C195.1,199.9,192.6,195.2,188.3,192.3z"/>
</g>
</svg>
