<?xml version="1.0" encoding="utf-8"?>
<!-- Generator: Adobe Illustrator 18.0.0, SVG Export Plug-In . SVG Version: 6.00 Build 0)  -->
<!DOCTYPE svg PUBLIC "-//W3C//DTD SVG 1.1//EN" "http://www.w3.org/Graphics/SVG/1.1/DTD/svg11.dtd">
<svg version="1.1" id="Layer_1" xmlns="http://www.w3.org/2000/svg" xmlns:xlink="http://www.w3.org/1999/xlink" x="0px" y="0px"
	 viewBox="0 0 300 300" enable-background="new 0 0 300 300" xml:space="preserve">
<g id="XMLID_1_">
	<path id="XMLID_807_" d="M258.2,173.1c10,9.7,20.5,18.9,29.4,29.6c3.9,4.8,7.7,9.7,10.5,15.2c4,7.8,0.4,16.5-6.6,16.9l-43.7,0
		c-11.3,0.9-20.3-3.6-27.8-11.3c-6.1-6.2-11.7-12.7-17.5-19.1c-2.4-2.6-4.9-5.1-7.9-7c-6-3.9-11.1-2.7-14.6,3.5
		c-3.5,6.3-4.3,13.3-4.6,20.4c-0.5,10.3-3.6,13-13.9,13.5c-22.1,1-43.1-2.3-62.5-13.4c-17.2-9.8-30.5-23.7-42.1-39.4
		C34.3,151.3,17,117.7,1.5,83.1C-2,75.4,0.6,71.2,9.2,71c14.3-0.3,28.5-0.3,42.8,0c5.8,0.1,9.6,3.4,11.9,8.9c7.7,19,17.2,37,29,53.7
		c3.2,4.5,6.4,8.9,11,12c5.1,3.5,8.9,2.3,11.3-3.3c1.5-3.6,2.2-7.4,2.5-11.3c1.1-13.2,1.3-26.4-0.7-39.5c-1.2-8.2-5.8-13.5-14-15.1
		c-4.2-0.8-3.6-2.3-1.5-4.7c3.5-4.1,6.8-6.7,13.4-6.7h49.4c7.8,1.5,9.5,5,10.6,12.9l0,54.9c-0.1,3,1.5,12,7,14
		c4.4,1.4,7.2-2.1,9.9-4.8c11.8-12.6,20.3-27.4,27.8-42.7c3.3-6.8,6.2-13.8,9-20.8c2.1-5.2,5.3-7.8,11.2-7.6l47.5,0
		c1.4,0,2.8,0,4.2,0.3c8,1.4,10.2,4.8,7.7,12.6c-3.9,12.3-11.5,22.5-18.9,32.8c-7.9,11-16.4,21.6-24.3,32.6
		C248.6,159.2,249.2,164.3,258.2,173.1L258.2,173.1z"/>
</g>
</svg>
