<?xml version="1.0" encoding="utf-8"?>
<!-- Generator: Adobe Illustrator 18.0.0, SVG Export Plug-In . SVG Version: 6.00 Build 0)  -->
<!DOCTYPE svg PUBLIC "-//W3C//DTD SVG 1.1//EN" "http://www.w3.org/Graphics/SVG/1.1/DTD/svg11.dtd">
<svg version="1.1" id="Layer_1" xmlns="http://www.w3.org/2000/svg" xmlns:xlink="http://www.w3.org/1999/xlink" x="0px" y="0px"
	 viewBox="0 0 300 300" enable-background="new 0 0 300 300" xml:space="preserve">
<path d="M269.6,162.5h-6.3v-29.4l23.3-30.4l-53.9-41.3l0,0l-28.1-21.5L177.5,19l-3.6,4.7l0.8-5.9l-33.9-4.4L109.2,0.4l-3.5,8.5
	L38.3,0L26.8,88.3c-7.8,2.3-13.4,9.5-13.4,18v181.2c0,6.9,5.6,12.5,12.5,12.5h225c6.9,0,12.5-5.6,12.5-12.5V250h6.3
	c3.5,0,6.3-2.8,6.3-6.2v-75C275.8,165.3,273,162.5,269.6,162.5z M179.8,36.6l89.3,68.4l-9,11.7c-2.3-2.6-5.6-4.2-9.3-4.2h-8.1H129.5
	h-7.9L179.8,36.6z M105.9,112.5h-9.3L120,56.1c8.1-0.2,15.5-3.4,21.1-8.7l11.2,4.6L105.9,112.5z M116,16.7l48.1,19.9l-3.9,5.1
	L136.7,32c-3,7.2-10,11.6-17.3,11.6c-2.4,0-4.8-0.5-7.2-1.4l-29.1,70.3h-6.8L116,16.7z M62.8,112.5h-7.7l8-61.4
	c4.3-1.3,8.4-3.5,11.9-6.5c2.5-2.2,4.6-4.7,6.2-7.4l12,1.6L62.8,112.5z M49.1,14l51.6,6.8l-2.5,6l-25.2-3.3
	c-1.2,9.4-9.3,16.3-18.6,16.3c-0.8,0-1.6-0.1-2.5-0.2l-9.5,72.9h-6.3L49.1,14z M250.8,287.5L250.8,287.5h-225V125h225v37.5h-62.5
	c0,0-25,29.9-25,43.7s25,43.7,25,43.7h62.5V287.5z M263.3,237.5h-69c-2.2-2.9-5.2-6.8-8.1-11.1c-9.8-14.4-10.4-19.8-10.4-20.1
	c0-0.4,0.6-5.7,10.4-20.1c2.9-4.3,5.9-8.3,8.1-11.1h69V237.5z"/>
<g>
	<g>
		<path d="M213.3,187.5c-10.4,0-18.8,8.4-18.8,18.8S203,225,213.3,225c10.4,0,18.8-8.4,18.8-18.8S223.7,187.5,213.3,187.5z
			 M213.3,212.5c-3.5,0-6.3-2.8-6.3-6.2s2.8-6.2,6.3-6.2c3.5,0,6.3,2.8,6.3,6.2S216.8,212.5,213.3,212.5z"/>
	</g>
</g>
<polygon points="221.8,66 179.5,120.8 133.3,121.7 194.2,41.9 "/>
</svg>
