<?xml version="1.0" encoding="utf-8"?>
<!-- Generator: Adobe Illustrator 18.0.0, SVG Export Plug-In . SVG Version: 6.00 Build 0)  -->
<!DOCTYPE svg PUBLIC "-//W3C//DTD SVG 1.1//EN" "http://www.w3.org/Graphics/SVG/1.1/DTD/svg11.dtd">
<svg version="1.1" id="Capa_1" xmlns="http://www.w3.org/2000/svg" xmlns:xlink="http://www.w3.org/1999/xlink" x="0px" y="0px"
	 viewBox="0 0 300 300" enable-background="new 0 0 300 300" xml:space="preserve">
<g>
	<path d="M283.7,94.6c-10-10.8-24.2-16.7-40-16.7h-41.2V47.2H0v181h37.6c2.5,14,14.6,24.6,29.2,24.6s26.8-10.6,29.2-24.6H195h16.5
		c2.5,14,14.6,24.6,29.2,24.6s26.8-10.6,29.2-24.6h30v-85.5C299.9,122.8,294.3,106.1,283.7,94.6z M15.1,62.3h172.3v23.1v127.7H94.7
		c-4.1-11.4-15.1-19.7-27.9-19.7s-23.8,8.2-27.9,19.7H15.1V62.3z M66.8,237.7c-8,0-14.6-6.5-14.6-14.6c0-8,6.5-14.6,14.6-14.6
		s14.6,6.5,14.6,14.6C81.4,231.1,74.9,237.7,66.8,237.7z M240.7,237.7c-8,0-14.6-6.5-14.6-14.6c0-8,6.5-14.6,14.6-14.6
		s14.6,6.5,14.6,14.6C255.3,231.1,248.8,237.7,240.7,237.7z M284.9,213.1h-16.2c-4.1-11.4-15.1-19.7-27.9-19.7
		c-12.8,0-23.8,8.2-27.9,19.7h-10.2V93h41.2c25.4,0,41.2,19,41.2,49.7L284.9,213.1L284.9,213.1z"/>
</g>
<rect x="194" y="143.2" width="96" height="15"/>
</svg>
