<?xml version="1.0" encoding="utf-8"?>
<!-- Generator: Adobe Illustrator 18.0.0, SVG Export Plug-In . SVG Version: 6.00 Build 0)  -->
<!DOCTYPE svg PUBLIC "-//W3C//DTD SVG 1.1//EN" "http://www.w3.org/Graphics/SVG/1.1/DTD/svg11.dtd">
<svg version="1.1" id="Capa_1" xmlns="http://www.w3.org/2000/svg" xmlns:xlink="http://www.w3.org/1999/xlink" x="0px" y="0px"
	 viewBox="0 0 300 300" enable-background="new 0 0 300 300" xml:space="preserve">
<path fill="#E02000" d="M144.9,61.8l-93.3,93.3l93.3,93.3l93.3-93.3L144.9,61.8z M171.5,191.6c-0.5,0.5-1,0.9-1.8,1.3
	c-0.7,0.4-1.4,0.6-2.2,0.7c-0.1,0-0.2,0-0.5,0c-0.3,0-0.6,0-1,0c-1,0-2.5-0.2-4.6-0.5s-4.8-1.1-7.9-2.4c-3.1-1.3-6.6-3.2-10.5-5.8
	c-3.9-2.6-8.1-6.1-12.5-10.6c-3.5-3.5-6.4-6.8-8.8-10c-2.3-3.2-4.2-6.1-5.6-8.8c-1.4-2.7-2.5-5.1-3.2-7.3s-1.2-4.1-1.4-5.7
	c-0.3-1.6-0.4-2.8-0.3-3.7c0.1-0.9,0.1-1.4,0.1-1.5c0.1-0.7,0.3-1.4,0.7-2.2c0.4-0.7,0.8-1.3,1.3-1.8l10-10c0.7-0.7,1.5-1.1,2.4-1.1
	c0.7,0,1.2,0.2,1.7,0.6c0.5,0.4,0.9,0.8,1.3,1.4l8.1,15.3c0.5,0.8,0.6,1.7,0.4,2.6c-0.2,1-0.6,1.8-1.3,2.4l-3.7,3.7
	c-0.1,0.1-0.2,0.3-0.3,0.5c-0.1,0.2-0.1,0.4-0.1,0.6c0.2,1.1,0.7,2.3,1.4,3.6c0.6,1.2,1.5,2.7,2.8,4.4s3,3.7,5.4,6
	c2.3,2.3,4.3,4.1,6,5.4c1.8,1.3,3.2,2.2,4.4,2.8c1.2,0.6,2.1,1,2.7,1.1l0.9,0.2c0.1,0,0.3,0,0.5-0.1c0.2-0.1,0.4-0.2,0.5-0.3
	l4.3-4.4c0.9-0.8,2-1.2,3.2-1.2c0.9,0,1.5,0.2,2,0.5h0.1l14.6,8.6c1.1,0.7,1.7,1.5,1.9,2.5c0.2,1.2-0.2,2.2-1.1,3L171.5,191.6z"/>
</svg>
