<?xml version="1.0" encoding="utf-8"?>
<!-- Generator: Adobe Illustrator 18.0.0, SVG Export Plug-In . SVG Version: 6.00 Build 0)  -->
<!DOCTYPE svg PUBLIC "-//W3C//DTD SVG 1.1//EN" "http://www.w3.org/Graphics/SVG/1.1/DTD/svg11.dtd">
<svg version="1.1" id="Capa_1" xmlns="http://www.w3.org/2000/svg" xmlns:xlink="http://www.w3.org/1999/xlink" x="0px" y="0px"
	 viewBox="0 0 300 300" enable-background="new 0 0 300 300" xml:space="preserve">
<g>
	<g>
		<path d="M210.8,85h26.3l-39-66.9c-3.1-5.4-10.1-7.3-15.5-4.1c-5.4,3.1-7.3,10.1-4.1,15.5L210.8,85z"/>
		<path d="M121.6,29.5c3.1-5.4,1.4-12.4-4.1-15.5c-5.4-3.1-12.4-1.4-15.5,4.1L63,85h26.3L121.6,29.5z"/>
		<path d="M280.7,105.5H19.3C8.6,105.5,0,114.1,0,124.8v21.4c0,10.7,8.6,19.3,19.3,19.3h6l18.6,100.8c2.3,11.9,13.2,21.3,24.5,21.3
			h7.4h48.5c4.9,0,11.3,0,17.9,0l0,0h5.9h5.9l0,0c6.5,0,12.9,0,17.9,0h48.5h7.4c11.3,0,22.1-9.4,24.5-21.3l18.7-100.9h9.8
			c10.7,0,19.3-8.6,19.3-19.3v-21.4C299.9,114.1,291.3,105.5,280.7,105.5z M106.4,206.2v43.5c0,6.2-5.1,10.9-10.9,10.9
			c-6.2,0-10.9-5.1-10.9-10.9v-18.2v-42.7c0-6.2,5.1-10.9,10.9-10.9c6.2,0,10.9,5.1,10.9,10.9V206.2z M141.4,206.2v43.5
			c0,6.2-5.1,10.9-10.9,10.9c-6.2,0-10.9-5.1-10.9-10.9v-18.2v-42.7c0-6.2,5.1-10.9,10.9-10.9c5.9,0,10.9,5.1,10.9,10.9V206.2z
			 M176.6,231.5v18.2c0,5.9-4.7,10.9-10.9,10.9c-5.9,0-10.9-4.7-10.9-10.9v-43.5v-17.5c0-5.9,5.1-10.9,10.9-10.9
			c5.9,0,10.9,4.7,10.9,10.9V231.5z M211.6,231.5v18.2c0,5.9-4.7,10.9-10.9,10.9c-5.9,0-10.9-4.7-10.9-10.9v-43.5v-17.5
			c0-5.9,4.7-10.9,10.9-10.9c5.9,0,10.9,4.7,10.9,10.9V231.5z"/>
	</g>
</g>
</svg>
