<?xml version="1.0" encoding="utf-8"?>
<!-- Generator: Adobe Illustrator 17.1.0, SVG Export Plug-In . SVG Version: 6.00 Build 0)  -->
<!DOCTYPE svg PUBLIC "-//W3C//DTD SVG 1.1//EN" "http://www.w3.org/Graphics/SVG/1.1/DTD/svg11.dtd">
<svg version="1.1" id="Capa_1" xmlns="http://www.w3.org/2000/svg" xmlns:xlink="http://www.w3.org/1999/xlink" x="0px" y="0px"
	 viewBox="51.5 61.8 186.7 186.7" enable-background="new 51.5 61.8 186.7 186.7" xml:space="preserve">
<path fill="#E02000" d="M144.9,61.8l-93.3,93.3l93.3,93.3l93.3-93.3L144.9,61.8z M144.9,195.1c-22.1,0-40-18-40-40s18-40,40-40
	c22.1,0,40,18,40,40S167,195.1,144.9,195.1z"/>
<path fill="#E02000" d="M166.9,156.9h-18.7v-22.5c0-1.9-1.5-3.4-3.4-3.4c-1.9,0-3.4,1.5-3.4,3.4v25.9c0,1.9,1.5,3.4,3.4,3.4h22.1
	c1.9,0,3.4-1.5,3.4-3.4C170.3,158.4,168.8,156.9,166.9,156.9z"/>
</svg>
