<?xml version="1.0" encoding="utf-8"?>
<!-- Generator: Adobe Illustrator 17.1.0, SVG Export Plug-In . SVG Version: 6.00 Build 0)  -->
<!DOCTYPE svg PUBLIC "-//W3C//DTD SVG 1.1//EN" "http://www.w3.org/Graphics/SVG/1.1/DTD/svg11.dtd">
<svg version="1.1" id="Capa_1" xmlns="http://www.w3.org/2000/svg" xmlns:xlink="http://www.w3.org/1999/xlink" x="0px" y="0px"
	 viewBox="51.5 61.8 186.7 186.7" enable-background="new 51.5 61.8 186.7 186.7" xml:space="preserve">
<path fill="#E02000" d="M144.9,61.8l-93.3,93.3l93.3,93.3l93.3-93.3L144.9,61.8z M126.8,181.3c0,3-1.9,5.6-4.5,5.6h-12.7
	c-2.6,0-5.4-2.6-5.4-5.6v-34.8c0-3,2.8-6.1,5.4-6.1h12.7c2.6,0,4.5,3.1,4.5,6.1V181.3z M180.5,179.5c0,3.7-2.8,6.8-6.5,7.2
	c-0.2,0-0.3,0.1-0.5,0.1h-39.1c-3.1,0-6.2-2.7-6.2-5.8v-34.7c0-3,2.6-5.6,5.7-5.8c0.1,0,0.5-0.2,0.6-0.2h0.5c0.4,0,0.8-0.1,1.1-0.5
	c0.1-0.3,0.3-0.4,0.5-0.8c1.8-3.7,4.7-10.9,3.3-17.3c-0.1-0.3-0.1-0.5,0-0.8c0-0.2,0-0.5,0-0.7c0-4,3.2-7.3,7.2-7.3
	c2.2,0,4.4,1,5.7,2.8c0,0,0-0.1,0-0.1c0.4,0.4,8.7,10,4,24.6h16.7c0,0,0,0,0,0c1.9,0,3.7,0.9,5.1,2.3c1.4,1.4,2.1,3.3,2.1,5.3
	c0,2.1-0.9,3.9-2.3,5.3c1.4,1.3,2.3,3.2,2.3,5.3c0,2.1-0.9,3.9-2.3,5.3c1.4,1.3,2.3,3.2,2.3,5.3c0,2.1-0.9,4.1-2.4,5.4
	C179.7,175.7,180.5,177.6,180.5,179.5z"/>
</svg>
