<?xml version="1.0" encoding="utf-8"?>
<!-- Generator: Adobe Illustrator 17.1.0, SVG Export Plug-In . SVG Version: 6.00 Build 0)  -->
<!DOCTYPE svg PUBLIC "-//W3C//DTD SVG 1.1//EN" "http://www.w3.org/Graphics/SVG/1.1/DTD/svg11.dtd">
<svg version="1.1" id="Layer_1" xmlns="http://www.w3.org/2000/svg" xmlns:xlink="http://www.w3.org/1999/xlink" x="0px" y="0px"
	 viewBox="0 0 52 96.1" enable-background="new 0 0 52 96.1" xml:space="preserve">
<g>
	<defs>
		<rect id="SVGID_1_" width="52" height="96.1"/>
	</defs>
	<clipPath id="SVGID_2_">
		<use xlink:href="#SVGID_1_"  overflow="visible"/>
	</clipPath>
	<path clip-path="url(#SVGID_2_)" fill="#E02000" d="M50,0L37.5,0c-14,0-23.1,9.3-23.1,23.7v10.9H2c-1.1,0-2,0.9-2,2v15.8
		c0,1.1,0.9,2,2,2h12.5v39.9c0,1.1,0.9,2,2,2h16.4c1.1,0,2-0.9,2-2V54.3h14.7c1.1,0,2-0.9,2-2l0-15.8c0-0.5-0.2-1-0.6-1.4
		c-0.4-0.4-0.9-0.6-1.4-0.6H34.8v-9.2c0-4.4,1.1-6.7,6.8-6.7l8.4,0c1.1,0,2-0.9,2-2V2C52,0.9,51.1,0,50,0"/>
</g>
</svg>
