<?xml version="1.0" encoding="utf-8"?>
<!-- Generator: Adobe Illustrator 17.1.0, SVG Export Plug-In . SVG Version: 6.00 Build 0)  -->
<!DOCTYPE svg PUBLIC "-//W3C//DTD SVG 1.1//EN" "http://www.w3.org/Graphics/SVG/1.1/DTD/svg11.dtd">
<svg version="1.1" id="Layer_1" xmlns="http://www.w3.org/2000/svg" xmlns:xlink="http://www.w3.org/1999/xlink" x="0px" y="0px"
	 viewBox="0 0 612 350" enable-background="new 0 0 612 350" xml:space="preserve">
<g>
	<defs>
		<rect id="SVGID_1_" width="612" height="350"/>
	</defs>
	<clipPath id="SVGID_2_">
		<use xlink:href="#SVGID_1_"  overflow="visible"/>
	</clipPath>
	<path clip-path="url(#SVGID_2_)" d="M612,207.2v55.6c0,13.9-11.2,25.1-25.1,25.1H560c-4.9-33.3-33.6-59-68.3-59
		c-34.6,0-63.3,25.6-68.2,59H195.2c-4.9-33.3-33.6-59-68.2-59s-63.3,25.6-68.2,59H25.1C11.3,287.9,0,276.7,0,262.8v-55.6H612z
		 M173.1,73h-14.3l-5.3,27.2h13.9c9.3,0,17-6.4,17-17C184.4,76.6,180.2,73,173.1,73 M543.9,297.9c0,28.7-23.4,52.1-52.1,52.1
		c-28.8,0-52.2-23.4-52.2-52.1c0-28.8,23.4-52.2,52.2-52.2C520.5,245.7,543.9,269.1,543.9,297.9 M517.8,297.9c0-14.4-11.7-26-26-26
		c-14.4,0-26,11.6-26,26c0,14.3,11.6,26,26,26C506.1,324,517.8,312.2,517.8,297.9 M179.1,297.9c0,28.7-23.3,52.1-52.1,52.1
		s-52.1-23.4-52.1-52.1c0-28.8,23.3-52.2,52.1-52.2S179.1,269.1,179.1,297.9 M153,297.9c0-14.4-11.6-26-26-26c-14.4,0-26,11.6-26,26
		c0,14.3,11.6,26,26,26C141.4,324,153,312.2,153,297.9 M612,193.3H0V25.1C0,11.2,11.3,0,25.1,0h379.7C418.8,0,430,11.2,430,25.1
		v18.7h49.8c8.8,0,17.3,3.5,23.5,9.7l98.7,97.7c6.3,6.3,9.9,14.8,9.9,23.8V193.3z M89.2,97.5L93.8,73h34.2l2.6-13.6H80.9L64,146.2
		h15.7l6.9-35.1h28.9l2.6-13.6L89.2,97.5L89.2,97.5z M180.8,109.6v-0.2c13.1-4.3,19.8-17.1,19.8-29c0-8.9-4.4-15.7-11.7-18.8
		c-3.5-1.6-7.8-2.2-12.5-2.2h-30.7l-16.9,86.8h15.8l6.2-32.4h15.7l11,32.4h16.9L182.7,114C181.6,110.9,180.8,109.6,180.8,109.6
		 M277.1,59.4h-51.9l-17,86.8h53.9l2.6-13.6h-38.2l4.5-23.4h29.2l2.7-13.6h-29.2l4.4-22.7h36.2L277.1,59.4z M347.2,59.4h-51.9
		l-17,86.8h53.9l2.6-13.6h-38.2l4.5-23.4h29.2l2.7-13.6h-29.2l4.4-22.7h36.2L347.2,59.4z M561.7,147.7l-77.3-73.8
		c-0.8-0.7-1.8-1.1-2.8-1.1h-18.2c-2.2,0-3.9,1.8-3.9,3.9v73.8c0,2.2,1.8,3.9,3.9,3.9H559C562.6,154.4,564.3,150.1,561.7,147.7"/>
</g>
</svg>
