<?xml version="1.0" encoding="utf-8"?>
<!-- Generator: Adobe Illustrator 18.0.0, SVG Export Plug-In . SVG Version: 6.00 Build 0)  -->
<!DOCTYPE svg PUBLIC "-//W3C//DTD SVG 1.1//EN" "http://www.w3.org/Graphics/SVG/1.1/DTD/svg11.dtd">
<svg version="1.1" id="Capa_1" xmlns="http://www.w3.org/2000/svg" xmlns:xlink="http://www.w3.org/1999/xlink" x="0px" y="0px"
	 viewBox="0 0 300 300" enable-background="new 0 0 300 300" xml:space="preserve">
<g>
	<path fill="#E02000" d="M145,137.8c-4.2,0-9.1,2.6-9.1,8.3v2c0,0.1,0,1.6,0.2,2.3c1.7,4.5,5.3,6.1,8.5,6.1c5.2,0,9.5-4.1,9.5-9.3
		C154.2,141.9,150.2,137.8,145,137.8z"/>
	<path fill="#E02000" d="M144.9,61.8l-93.3,93.3l93.3,93.3l93.3-93.3L144.9,61.8z M158,173.8c-0.5,0.8-1.4,1.7-2,2.7
		c-0.8,1.4-1.7,2.8-2.5,4.2c-2.8,4.9-5.8,9.9-8.7,14.9c-4.7-7.6-9.5-15.3-14.1-23.1c-4.3-7.3-10-15-10.9-22.2
		c-0.1-0.6-0.1-1.7-0.1-1.9v-3.1c1.6-15.2,13.8-22.6,24.8-22.6c8.2,0,18.4,4,23.1,15.2c0.4,0.9,0.9,1.9,1.2,2.9
		c0.1,0.2,1.2,3.4,1.2,4.3v3.4C170,156.9,162.6,165.4,158,173.8z"/>
</g>
</svg>
