<?xml version="1.0" encoding="utf-8"?>
<!-- Generator: Adobe Illustrator 17.1.0, SVG Export Plug-In . SVG Version: 6.00 Build 0)  -->
<!DOCTYPE svg PUBLIC "-//W3C//DTD SVG 1.1//EN" "http://www.w3.org/Graphics/SVG/1.1/DTD/svg11.dtd">
<svg version="1.1" id="Capa_1" xmlns="http://www.w3.org/2000/svg" xmlns:xlink="http://www.w3.org/1999/xlink" x="0px" y="0px"
	 viewBox="51.5 61.8 186.7 186.7" enable-background="new 51.5 61.8 186.7 186.7" xml:space="preserve">
<path fill="#E02000" d="M144.9,61.8l-93.3,93.3l93.3,93.3l93.3-93.3L144.9,61.8z M108.1,127.1c1.2-1.5,2.9-2.2,5.1-2.2h63.3
	c1.9,0,3.5,0.7,4.8,2c1.4,1.3,2,3,2,4.9c0,2.3-0.7,4.4-2.1,6.5c-1.4,2.1-3.2,3.8-5.2,5.3c-7,4.8-12.2,8.5-15.8,11
	c-2,1.4-3.4,2.4-4.4,3c-0.1,0.1-0.4,0.3-0.6,0.5c-0.3,0.2-0.7,0.5-1.2,0.9c-0.9,0.7-1.7,1.2-2.3,1.6c-0.6,0.4-1.4,0.9-2.2,1.4
	c-0.9,0.5-1.7,0.9-2.5,1.2c-0.8,0.3-1.5,0.4-2.2,0.4h0h0c-0.7,0-1.4-0.1-2.2-0.4c-0.8-0.3-1.6-0.6-2.5-1.2c-0.9-0.5-1.6-1-2.2-1.4
	c-0.6-0.4-1.4-1-2.3-1.6c-0.5-0.3-0.9-0.6-1.2-0.9c-0.3-0.2-0.5-0.4-0.6-0.5c-1.2-0.8-2.7-1.9-4.3-3c-2-1.4-4.3-3-6.9-4.8
	c-4.9-3.4-7.8-5.4-8.8-6.1c-1.8-1.2-3.5-2.9-5-5c-1.6-2.1-2.4-4.1-2.4-5.9C106.4,130.4,106.9,128.5,108.1,127.1z M106.3,144.3
	c1.3,1.4,2.7,2.7,4.3,3.7c6.1,4.1,11.1,7.5,14.9,10.2l-19.2,19.2V144.3z M176.5,185.4h-63.3c-1.7,0-3.2-0.6-4.5-1.7l21.8-21.8
	c0.5,0.4,1.1,0.8,1.5,1.1c1.6,1.2,3,2.1,4,2.8c1,0.7,2.4,1.4,4.1,2.1c1.7,0.7,3.3,1.1,4.7,1.1h0h0c1.5,0,3-0.4,4.7-1.1
	c1.7-0.7,3-1.4,4.1-2.1c1-0.7,2.3-1.6,4-2.8c0.5-0.3,1-0.7,1.5-1.1l21.8,21.8C179.8,184.8,178.3,185.4,176.5,185.4z M183.4,177.6
	l-19.2-19.2c4.1-2.9,9.1-6.3,14.9-10.2c1.6-1.1,3.1-2.4,4.3-3.7V177.6z"/>
</svg>
