<?xml version="1.0" encoding="utf-8"?>
<!-- Generator: Adobe Illustrator 17.1.0, SVG Export Plug-In . SVG Version: 6.00 Build 0)  -->
<!DOCTYPE svg PUBLIC "-//W3C//DTD SVG 1.1//EN" "http://www.w3.org/Graphics/SVG/1.1/DTD/svg11.dtd">
<svg version="1.1" id="Capa_1" xmlns="http://www.w3.org/2000/svg" xmlns:xlink="http://www.w3.org/1999/xlink" x="0px" y="0px"
	 viewBox="51.5 61.8 186.7 186.7" enable-background="new 51.5 61.8 186.7 186.7" xml:space="preserve">
<path fill="#E02000" d="M144.9,61.8l-93.3,93.3l93.3,93.3l93.3-93.3L144.9,61.8z M112,132.6c1.1-1.3,2.6-2,4.6-2h56.7
	c1.7,0,3.1,0.6,4.3,1.8c1.2,1.2,1.8,2.7,1.8,4.4c0,2-0.6,4-1.9,5.8c-1.3,1.9-2.8,3.4-4.7,4.7c-9.7,6.7-15.7,10.9-18,12.5
	c-0.3,0.2-0.8,0.6-1.6,1.2c-0.8,0.6-1.5,1.1-2.1,1.5c-0.6,0.4-1.2,0.8-2,1.3c-0.8,0.5-1.5,0.8-2.2,1c-0.7,0.2-1.3,0.3-1.9,0.3h0h0
	c-0.6,0-1.2-0.1-1.9-0.3c-0.7-0.2-1.4-0.6-2.2-1c-0.8-0.5-1.5-0.9-2-1.3c-0.6-0.4-1.2-0.9-2.1-1.5c-0.8-0.6-1.4-1-1.6-1.2
	c-2.3-1.6-5.7-4-10.1-7c-4.4-3-7-4.9-7.9-5.5c-1.6-1.1-3.1-2.6-4.5-4.5c-1.4-1.9-2.1-3.6-2.1-5.3C110.4,135.6,110.9,133.9,112,132.6
	z M177.6,183.1c-1.2,1.2-2.7,1.8-4.4,1.8h-56.7c-1.7,0-3.1-0.6-4.4-1.8c-1.2-1.2-1.8-2.7-1.8-4.4v-30.6c1.1,1.3,2.4,2.4,3.9,3.4
	c9.3,6.3,15.7,10.8,19.2,13.3c1.5,1.1,2.7,1.9,3.6,2.5c0.9,0.6,2.1,1.2,3.6,1.8c1.5,0.6,2.9,0.9,4.2,0.9h0h0c1.3,0,2.7-0.3,4.2-0.9
	c1.5-0.6,2.7-1.2,3.6-1.8c0.9-0.6,2.1-1.4,3.6-2.5c4.4-3.2,10.8-7.6,19.2-13.3c1.5-1,2.8-2.1,3.9-3.4v30.6
	C179.4,180.4,178.8,181.9,177.6,183.1z"/>
</svg>
