<?xml version="1.0" encoding="utf-8"?>
<!-- Generator: Adobe Illustrator 17.1.0, SVG Export Plug-In . SVG Version: 6.00 Build 0)  -->
<!DOCTYPE svg PUBLIC "-//W3C//DTD SVG 1.1//EN" "http://www.w3.org/Graphics/SVG/1.1/DTD/svg11.dtd">
<svg version="1.1" id="Layer_1" xmlns="http://www.w3.org/2000/svg" xmlns:xlink="http://www.w3.org/1999/xlink" x="0px" y="0px"
	 viewBox="0 0 57.3 95.5" enable-background="new 0 0 57.3 95.5" xml:space="preserve">
<g>
	<defs>
		<rect id="SVGID_1_" y="0" width="57.3" height="95.5"/>
	</defs>
	<clipPath id="SVGID_2_">
		<use xlink:href="#SVGID_1_"  overflow="visible"/>
	</clipPath>
	<path clip-path="url(#SVGID_2_)" fill="#E02000" d="M24,67.3c-7.4-0.8-14.1-2.6-19.8-7.1c-0.7-0.6-1.4-1.1-2.1-1.7
		c-2.5-2.4-2.8-5.2-0.8-8c1.7-2.4,4.5-3.1,7.5-1.7c0.6,0.3,1.1,0.6,1.6,1c10.6,7.3,25.3,7.5,36,0.3c1.1-0.8,2.2-1.5,3.5-1.8
		c2.6-0.7,4.9,0.3,6.3,2.5c1.6,2.5,1.5,5-0.4,7c-3,3-6.5,5.2-10.5,6.8c-3.7,1.4-7.8,2.2-11.9,2.7c0.6,0.7,0.9,1,1.3,1.4
		c5.5,5.5,11,11,16.5,16.6c1.9,1.9,2.3,4.2,1.2,6.4c-1.1,2.4-3.6,4-6.1,3.8c-1.6-0.1-2.8-0.9-3.9-2c-4.1-4.2-8.4-8.3-12.4-12.5
		c-1.2-1.2-1.8-1-2.8,0.1c-4.2,4.3-8.4,8.5-12.7,12.7c-1.9,1.9-4.2,2.2-6.4,1.2c-2.4-1.1-3.9-3.6-3.7-6c0.1-1.6,0.9-2.9,2-4
		c5.4-5.4,10.9-10.9,16.3-16.3C23.1,68.2,23.4,67.8,24,67.3"/>
	<path clip-path="url(#SVGID_2_)" fill="#E02000" d="M28.5,48.3c-13.2,0-24-11-24-24.2C4.6,10.7,15.4,0,28.8,0
		c13.4,0,24.1,11,24,24.5C52.7,37.7,41.8,48.4,28.5,48.3 M40.5,24.1c0-6.6-5.3-11.8-11.8-11.8c-6.6,0-11.9,5.3-11.8,11.9
		c0,6.5,5.3,11.7,11.9,11.7C35.3,36,40.5,30.7,40.5,24.1"/>
</g>
</svg>
