<?xml version="1.0" encoding="utf-8"?>
<!-- Generator: Adobe Illustrator 17.1.0, SVG Export Plug-In . SVG Version: 6.00 Build 0)  -->
<!DOCTYPE svg PUBLIC "-//W3C//DTD SVG 1.1//EN" "http://www.w3.org/Graphics/SVG/1.1/DTD/svg11.dtd">
<svg version="1.1" id="Layer_1" xmlns="http://www.w3.org/2000/svg" xmlns:xlink="http://www.w3.org/1999/xlink" x="0px" y="0px"
	 viewBox="0 0 105.4 211.7" enable-background="new 0 0 105.4 211.7" xml:space="preserve">
<path fill="none" stroke="#FFFFFF" stroke-width="3" stroke-miterlimit="22.926" d="M52.7,107.8c-28.3,0-51.2,22.9-51.2,51.2
	s22.9,51.2,51.2,51.2s51.2-22.9,51.2-51.2S80.9,107.8,52.7,107.8z"/>
<path fill="#55AF31" d="M70.3,155.7c4.8-2.7,5.4-9.7,5.4-14.4c0-3.3-0.9-6.4-2.8-9.4c-1.9-3-4.4-5.2-7.7-6.7
	c-3.3-1.4-7.5-1.9-12.9-1.9h-3.8v9.4h0.6c5.1,0,11.7-0.8,15.6,3.5c1.4,1.6,1.7,3.9,1.7,6.3c0,2.5-0.6,4.6-1.8,6.2
	c-1.2,1.7-3,3-5.4,3.6c-0.6,0.1-1.2,0.2-1.9,0.3C57.2,152.5,69.9,155.5,70.3,155.7L70.3,155.7z"/>
<path fill="#FFFFFF" d="M32.5,194.6V185h20.3c2.9,0,9.4,0.2,11.8-1.3c1.5-0.9,2.6-2.2,3.6-4c0.9-1.7,1.4-3.7,1.4-6c0-2.7-0.7-5-2-7
	c-1.4-2-3.2-3.3-5.7-4.1c-2.4-0.8-5.9-0.9-10.4-0.9H44v18.5h-9.3v-47.4h-8.8l6.6-9.6h11.4v29.2c4.3,0,8.5,0.1,12.9,0h0.7
	c0.3,0,4.5,0.1,7.6,0.9c3.5,0.9,6,2.6,6.1,2.6c5.3,3.1,8.2,11.4,8.2,17.7s-3.2,13.5-8.4,17.5c-3.6,2.8-7.3,3.3-11.7,3.3L44,194.5
	L32.5,194.6L32.5,194.6L32.5,194.6z"/>
<path fill="#55AF31" d="M34.7,132.9v47.3h9.2v-56.9H32.6l-6.6,9.6H34.7z"/>
<path fill="none" stroke="#FFFFFF" stroke-width="3" stroke-miterlimit="22.926" d="M52.7,1.5C24.4,1.5,1.5,24.4,1.5,52.7
	s22.9,51.2,51.2,51.2s51.2-22.9,51.2-51.2S80.9,1.5,52.7,1.5z"/>
<path fill="#FFFFFF" d="M70.3,49.4c4.8-2.7,5.4-9.7,5.4-14.4c0-3.3-0.9-6.4-2.8-9.4c-1.9-3-4.4-5.2-7.7-6.7
	c-3.3-1.4-7.5-1.9-12.9-1.9h-3.8v9.4h0.6c5.1,0,11.7-0.8,15.6,3.5c1.4,1.6,1.7,3.9,1.7,6.3c0,2.5-0.6,4.6-1.8,6.2
	c-1.2,1.7-3,3-5.4,3.6c-0.6,0.1-1.2,0.2-1.9,0.3C57.2,46.2,69.9,49.2,70.3,49.4z"/>
<path fill="#FFFFFF" d="M32.5,88.3v-9.6h20.3c2.9,0,9.4,0.2,11.8-1.3c1.5-0.9,2.6-2.2,3.6-4c0.9-1.7,1.4-3.7,1.4-6c0-2.7-0.7-5-2-7
	c-1.4-2-3.2-3.3-5.7-4.1c-2.4-0.8-5.9-0.9-10.4-0.9H44v18.5h-9.3V26.5h-8.8l6.6-9.6h11.4v29.2c4.3,0,8.5,0.1,12.9,0h0.7
	c0.3,0,4.5,0.1,7.6,0.9c3.5,0.9,6,2.6,6.1,2.6c5.3,3.1,8.2,11.4,8.2,17.7S76.2,80.8,71,84.8c-3.6,2.8-7.3,3.3-11.7,3.3L44,88.2
	L32.5,88.3L32.5,88.3z"/>
<path fill="#FFFFFF" d="M43.9,17H32.6L26,26.6h8.7v47.3h9.2V17z"/>
</svg>
